<?xml version="1.0" encoding="UTF-8"?>
<!--Generator: Apple Native CoreSVG 232.5-->
<!DOCTYPE svg
PUBLIC "-//W3C//DTD SVG 1.1//EN"
       "http://www.w3.org/Graphics/SVG/1.1/DTD/svg11.dtd">
<svg version="1.1" xmlns="http://www.w3.org/2000/svg" xmlns:xlink="http://www.w3.org/1999/xlink" width="23.3887" height="17.9785">
 <g>
  <rect height="17.9785" opacity="0" width="23.3887" x="0" y="0"/>
  <path d="M23.0273 3.02734L23.0273 14.9609C23.0273 16.9727 22.0117 17.9785 19.9609 17.9785L3.06641 17.9785C1.02539 17.9785 0 16.9727 0 14.9609L0 3.02734C0 1.01562 1.02539 0 3.06641 0L19.9609 0C22.0117 0 23.0273 1.01562 23.0273 3.02734ZM14.4922 6.49414C14.4727 6.62109 14.4629 6.69922 14.4629 6.8457C14.4629 7.17773 14.707 7.42188 15.0684 7.42188C15.3809 7.42188 15.5762 7.27539 15.6738 6.96289C15.8691 6.28906 16.4453 5.9082 17.2168 5.9082C18.0664 5.9082 18.6133 6.33789 18.6133 7.03125C18.6133 7.74414 17.998 8.27148 17.1777 8.27148L16.6211 8.27148C16.3086 8.27148 16.0742 8.48633 16.0742 8.81836C16.0742 9.14062 16.3086 9.375 16.6211 9.375L17.2363 9.375C18.2129 9.375 18.877 9.89258 18.877 10.6836C18.877 11.4551 18.2031 11.9824 17.1875 11.9824C16.3477 11.9824 15.7617 11.6016 15.5273 10.918C15.4004 10.6152 15.2148 10.4688 14.9121 10.4688C14.5312 10.4688 14.3066 10.7227 14.3066 11.0742C14.3066 11.2012 14.3164 11.2598 14.3359 11.377C14.5508 12.4023 15.7422 13.1152 17.168 13.1152C18.9746 13.1152 20.1953 12.168 20.1953 10.7324C20.1953 9.69727 19.4238 8.88672 18.3691 8.76953L18.3691 8.75C19.2383 8.61328 19.9121 7.8125 19.9121 6.88477C19.9121 5.6543 18.7988 4.76562 17.2363 4.76562C15.8105 4.76562 14.7363 5.44922 14.4922 6.49414ZM4.61914 5.12695L3.01758 6.2207C2.82227 6.34766 2.75391 6.49414 2.75391 6.68945C2.75391 6.96289 2.97852 7.19727 3.22266 7.19727C3.35938 7.19727 3.45703 7.17773 3.67188 7.03125L4.81445 6.2793L4.90234 6.2793L4.90234 12.3438C4.90234 12.8125 5.15625 13.1055 5.57617 13.1055C6.01562 13.1055 6.26953 12.8223 6.26953 12.3438L6.26953 5.55664C6.26953 5.05859 6.00586 4.78516 5.54688 4.78516C5.20508 4.78516 5 4.87305 4.61914 5.12695ZM7.82227 6.55273C7.7832 6.68945 7.76367 6.77734 7.76367 6.9043C7.76367 7.24609 7.98828 7.48047 8.34961 7.48047C8.67188 7.48047 8.83789 7.28516 8.99414 7.03125C9.20898 6.49414 9.67773 5.92773 10.5176 5.92773C11.3379 5.92773 11.8945 6.41602 11.8945 7.13867C11.8945 7.76367 11.3672 8.30078 10.8594 8.84766L8.03711 11.8652C7.89062 12.0215 7.80273 12.1875 7.80273 12.3926C7.80273 12.7539 8.05664 12.9785 8.44727 12.9785L12.959 12.9785C13.3105 12.9785 13.5547 12.7246 13.5547 12.3828C13.5547 12.041 13.3105 11.8066 12.959 11.8066L9.74609 11.8066L9.74609 11.7676L11.8262 9.54102C12.6074 8.70117 13.1641 7.99805 13.1641 7.03125C13.1641 5.67383 12.0898 4.77539 10.459 4.77539C9.21875 4.77539 8.10547 5.53711 7.82227 6.55273Z" fill="#000000" fill-opacity="0.85"/>
 </g>
</svg>
