<?xml version="1.0" encoding="UTF-8"?>
<!--Generator: Apple Native CoreSVG 232.5-->
<!DOCTYPE svg
PUBLIC "-//W3C//DTD SVG 1.1//EN"
       "http://www.w3.org/Graphics/SVG/1.1/DTD/svg11.dtd">
<svg version="1.1" xmlns="http://www.w3.org/2000/svg" xmlns:xlink="http://www.w3.org/1999/xlink" width="22.9396" height="16.8848">
 <g>
  <rect height="16.8848" opacity="0" width="22.9396" x="0" y="0"/>
  <path d="M9.51181 1.47461L21.836 1.47461C22.2462 1.47461 22.5782 1.15234 22.5782 0.732422C22.5782 0.322266 22.2462 0 21.836 0L9.51181 0C9.09189 0 8.76962 0.322266 8.76962 0.732422C8.76962 1.15234 9.09189 1.47461 9.51181 1.47461ZM9.51181 6.5918L21.836 6.5918C22.2462 6.5918 22.5782 6.26953 22.5782 5.84961C22.5782 5.43945 22.2462 5.11719 21.836 5.11719L9.51181 5.11719C9.09189 5.11719 8.76962 5.43945 8.76962 5.84961C8.76962 6.26953 9.09189 6.5918 9.51181 6.5918ZM9.51181 11.709L21.836 11.709C22.2462 11.709 22.5782 11.377 22.5782 10.9668C22.5782 10.5566 22.2462 10.2344 21.836 10.2344L9.51181 10.2344C9.09189 10.2344 8.76962 10.5566 8.76962 10.9668C8.76962 11.377 9.09189 11.709 9.51181 11.709ZM9.51181 16.8164L16.8458 16.8164C17.2559 16.8164 17.5977 16.4941 17.5977 16.084C17.5977 15.6738 17.2559 15.3418 16.8458 15.3418L9.51181 15.3418C9.09189 15.3418 8.76962 15.6738 8.76962 16.084C8.76962 16.4941 9.09189 16.8164 9.51181 16.8164Z" fill="#000000" fill-opacity="0.85"/>
  <path d="M1.53329 11.4062L4.76571 9.24805C5.34189 8.85742 5.32236 8.02734 4.76571 7.63672L1.53329 5.43945C0.78134 4.93164-0.00967611 5.21484 8.95111e-05 6.11328L8.95111e-05 10.7422C-0.00967611 11.6113 0.810636 11.875 1.53329 11.4062Z" fill="#000000" fill-opacity="0.85"/>
 </g>
</svg>
