<?xml version="1.0" encoding="UTF-8"?>
<!--Generator: Apple Native CoreSVG 232.5-->
<!DOCTYPE svg
PUBLIC "-//W3C//DTD SVG 1.1//EN"
       "http://www.w3.org/Graphics/SVG/1.1/DTD/svg11.dtd">
<svg version="1.1" xmlns="http://www.w3.org/2000/svg" xmlns:xlink="http://www.w3.org/1999/xlink" width="10.4785" height="13.9746">
 <g>
  <rect height="13.9746" opacity="0" width="10.4785" x="0" y="0"/>
  <path d="M0.78125 13.9648L6.95312 13.9648C7.41211 13.9648 7.74414 13.6816 7.74414 13.2227C7.74414 12.7832 7.42188 12.5 6.96289 12.5L4.77539 12.5L7.14844 1.46484L9.33594 1.46484C9.79492 1.46484 10.1172 1.18164 10.1172 0.722656C10.1172 0.283203 9.80469 0 9.3457 0L3.14453 0C2.68555 0 2.37305 0.283203 2.37305 0.722656C2.37305 1.18164 2.69531 1.46484 3.1543 1.46484L5.3418 1.46484L2.96875 12.5L0.771484 12.5C0.3125 12.5 0 12.7832 0 13.2227C0 13.6816 0.322266 13.9648 0.78125 13.9648Z" fill="#000000" fill-opacity="0.85"/>
 </g>
</svg>
