<?xml version="1.0" encoding="UTF-8"?>
<!--Generator: Apple Native CoreSVG 232.5-->
<!DOCTYPE svg
PUBLIC "-//W3C//DTD SVG 1.1//EN"
       "http://www.w3.org/Graphics/SVG/1.1/DTD/svg11.dtd">
<svg version="1.1" xmlns="http://www.w3.org/2000/svg" xmlns:xlink="http://www.w3.org/1999/xlink" width="21.8555" height="13.5449">
 <g>
  <rect height="13.5449" opacity="0" width="21.8555" x="0" y="0"/>
  <path d="M9.76562 8.84766C9.76562 6.25 7.8418 4.17969 5.36133 4.17969C4.19922 4.17969 3.0957 4.63867 2.28516 5.53711L2.02148 5.53711C2.58789 3.69141 4.30664 2.14844 6.44531 1.51367C6.74805 1.41602 6.97266 1.32812 7.10938 1.21094C7.26562 1.08398 7.35352 0.927734 7.35352 0.703125C7.35352 0.292969 7.04102 0.00976562 6.58203 0.00976562C6.2793 0.00976562 6.04492 0.0683594 5.625 0.205078C4.27734 0.644531 3.06641 1.41602 2.12891 2.40234C0.810547 3.76953 0 5.5957 0 7.76367C0 11.4258 2.32422 13.5449 5.04883 13.5449C7.73438 13.5449 9.76562 11.4941 9.76562 8.84766ZM21.4941 8.84766C21.4941 6.25 19.5605 4.17969 17.0898 4.17969C15.9277 4.17969 14.8145 4.63867 14.0137 5.53711L13.75 5.53711C14.3164 3.69141 16.0352 2.14844 18.1641 1.51367C18.4668 1.41602 18.7012 1.32812 18.8379 1.21094C18.9941 1.08398 19.0723 0.927734 19.0723 0.703125C19.0723 0.292969 18.7695 0.00976562 18.3105 0.00976562C17.998 0.00976562 17.7734 0.0683594 17.3438 0.205078C16.0059 0.644531 14.7852 1.41602 13.8477 2.40234C12.5391 3.76953 11.7285 5.5957 11.7285 7.76367C11.7285 11.4258 14.0527 13.5449 16.7773 13.5449C19.4629 13.5449 21.4941 11.4941 21.4941 8.84766Z" fill="#000000" fill-opacity="0.85"/>
 </g>
</svg>
