<?xml version="1.0" encoding="UTF-8"?>
<!--Generator: Apple Native CoreSVG 232.5-->
<!DOCTYPE svg
PUBLIC "-//W3C//DTD SVG 1.1//EN"
       "http://www.w3.org/Graphics/SVG/1.1/DTD/svg11.dtd">
<svg version="1.1" xmlns="http://www.w3.org/2000/svg" xmlns:xlink="http://www.w3.org/1999/xlink" width="16.4844" height="14.4824">
 <g>
  <rect height="14.4824" opacity="0" width="16.4844" x="0" y="0"/>
  <path d="M13.3789 10.2539C13.3789 12.8027 11.2988 14.4727 8.05664 14.4727C5.37109 14.4727 3.33984 13.3008 2.82227 11.4551C2.77344 11.2695 2.74414 11.084 2.74414 10.9082C2.74414 10.4004 3.06641 10.0781 3.59375 10.0781C4.00391 10.0781 4.21875 10.2637 4.39453 10.6836C4.89258 12.0703 6.25 12.9004 8.05664 12.9004C10.0977 12.9004 11.5332 11.875 11.5332 10.4688C11.5332 9.29688 10.6836 8.63281 8.65234 8.14453L6.85547 7.71484C6.57681 7.64928 6.31405 7.57823 6.07057 7.5L11.9309 7.5C12.9276 8.1515 13.3789 9.02857 13.3789 10.2539ZM12.9492 3.00781C12.9883 3.1543 13.0078 3.31055 13.0078 3.45703C13.0078 3.94531 12.6953 4.23828 12.1875 4.23828C11.7969 4.23828 11.5625 4.0625 11.4062 3.69141C10.9277 2.34375 9.72656 1.58203 8.04688 1.58203C6.18164 1.58203 4.83398 2.54883 4.83398 3.91602C4.83398 5 5.67383 5.60547 7.65625 6.08398L9.24805 6.46484C9.55704 6.53792 9.84717 6.61545 10.1151 6.69922L4.34285 6.69922C3.42178 6.05843 2.98828 5.19403 2.98828 4.04297C2.98828 1.67969 5.10742 0 8.04688 0C10.5566 0 12.5098 1.23047 12.9492 3.00781Z" fill="#000000" fill-opacity="0.85"/>
  <path d="M0.400391 7.5L15.7227 7.5C15.9473 7.5 16.123 7.32422 16.123 7.09961C16.123 6.875 15.9473 6.69922 15.7227 6.69922L0.400391 6.69922C0.175781 6.69922 0 6.875 0 7.09961C0 7.32422 0.175781 7.5 0.400391 7.5Z" fill="#000000" fill-opacity="0.85"/>
 </g>
</svg>
