<?xml version="1.0" standalone="no"?><!DOCTYPE svg PUBLIC "-//W3C//DTD SVG 1.1//EN" "http://www.w3.org/Graphics/SVG/1.1/DTD/svg11.dtd"><svg class="icon" width="200px" height="200.00px" viewBox="0 0 1024 1024" version="1.1" xmlns="http://www.w3.org/2000/svg"><path d="M401.493333 554.666667L512 665.173333 622.506667 554.666667 682.666667 614.826667 572.16 725.333333 682.666667 835.84 622.506667 896 512 785.493333 401.493333 896 341.333333 835.84 451.84 725.333333 341.333333 614.826667 401.493333 554.666667M938.666667 384a85.333333 85.333333 0 0 1-85.333334 85.333333H170.666667a85.333333 85.333333 0 0 1-85.333334-85.333333V256a85.333333 85.333333 0 0 1 85.333334-85.333333h682.666666a85.333333 85.333333 0 0 1 85.333334 85.333333v128M170.666667 384h170.666666V256H170.666667v128m256 0h170.666666V256h-170.666666v128m256 0h170.666666V256h-170.666666v128z"  /></svg>