<?xml version="1.0" encoding="UTF-8"?>
<!--Generator: Apple Native CoreSVG 232.5-->
<!DOCTYPE svg
PUBLIC "-//W3C//DTD SVG 1.1//EN"
       "http://www.w3.org/Graphics/SVG/1.1/DTD/svg11.dtd">
<svg version="1.1" xmlns="http://www.w3.org/2000/svg" xmlns:xlink="http://www.w3.org/1999/xlink" width="11.9727" height="13.9746">
 <g>
  <rect height="13.9746" opacity="0" width="11.9727" x="0" y="0"/>
  <path d="M1.65039 13.9648L6.73828 13.9648C9.72656 13.9648 11.6113 12.3926 11.6113 9.98047C11.6113 8.07617 10.2344 6.69922 8.25195 6.5918L8.25195 6.51367C9.87305 6.28906 10.9766 5.06836 10.9766 3.51562C10.9766 1.33789 9.30664 0 6.60156 0L1.65039 0C0.605469 0 0 0.615234 0 1.68945L0 12.2852C0 13.3496 0.605469 13.9648 1.65039 13.9648ZM3.22266 11.709L3.22266 7.83203L5.67383 7.83203C7.38281 7.83203 8.33984 8.49609 8.33984 9.74609C8.33984 11.0254 7.42188 11.709 5.74219 11.709ZM3.22266 5.80078L3.22266 2.29492L5.625 2.29492C6.99219 2.29492 7.80273 2.91992 7.80273 3.99414C7.80273 5.12695 6.9043 5.80078 5.38086 5.80078Z" fill="#000000" fill-opacity="0.85"/>
 </g>
</svg>
