<?xml version="1.0" encoding="UTF-8"?>
<!--Generator: Apple Native CoreSVG 232.5-->
<!DOCTYPE svg
PUBLIC "-//W3C//DTD SVG 1.1//EN"
       "http://www.w3.org/Graphics/SVG/1.1/DTD/svg11.dtd">
<svg version="1.1" xmlns="http://www.w3.org/2000/svg" xmlns:xlink="http://www.w3.org/1999/xlink" width="12.2168" height="14.4434">
 <g>
  <rect height="14.4434" opacity="0" width="12.2168" x="0" y="0"/>
  <path d="M0.820312 14.4238C1.33789 14.4238 1.5918 14.2285 1.77734 13.6816L3.03711 10.2344L8.79883 10.2344L10.0586 13.6816C10.2441 14.2285 10.498 14.4238 11.0059 14.4238C11.5234 14.4238 11.8555 14.1113 11.8555 13.623C11.8555 13.457 11.8262 13.3008 11.748 13.0957L7.16797 0.898438C6.94336 0.302734 6.54297 0 5.91797 0C5.3125 0 4.90234 0.292969 4.6875 0.888672L0.107422 13.1055C0.0292969 13.3105 0 13.4668 0 13.6328C0 14.1211 0.3125 14.4238 0.820312 14.4238ZM3.51562 8.75L5.88867 2.17773L5.9375 2.17773L8.31055 8.75Z" fill="#000000" fill-opacity="0.85"/>
 </g>
</svg>
