<?xml version="1.0" encoding="UTF-8"?>
<!--Generator: Apple Native CoreSVG 232.5-->
<!DOCTYPE svg
PUBLIC "-//W3C//DTD SVG 1.1//EN"
       "http://www.w3.org/Graphics/SVG/1.1/DTD/svg11.dtd">
<svg version="1.1" xmlns="http://www.w3.org/2000/svg" xmlns:xlink="http://www.w3.org/1999/xlink" width="22.2559" height="19.7559">
 <g>
  <rect height="19.7559" opacity="0" width="22.2559" x="0" y="0"/>
  <path d="M11.3379 16.2793L21.1426 16.2793C21.5527 16.2793 21.8945 15.957 21.8945 15.5469C21.8945 15.127 21.5527 14.8047 21.1426 14.8047L11.3379 14.8047C10.9277 14.8047 10.5957 15.127 10.5957 15.5469C10.5957 15.957 10.9277 16.2793 11.3379 16.2793Z" fill="#000000" fill-opacity="0.85"/>
  <path d="M4.20898 19.7559C6.50391 19.7559 8.41797 17.8418 8.41797 15.5469C8.41797 13.2324 6.50391 11.3281 4.20898 11.3281C1.9043 11.3281 0 13.2422 0 15.5469C0 17.8418 1.91406 19.7559 4.20898 19.7559ZM4.20898 18.3301C2.69531 18.3301 1.42578 17.0508 1.42578 15.5469C1.42578 14.0332 2.70508 12.7539 4.20898 12.7539C5.71289 12.7539 6.99219 14.0332 6.99219 15.5469C6.99219 17.0508 5.71289 18.3301 4.20898 18.3301Z" fill="#000000" fill-opacity="0.85"/>
  <path d="M11.3379 4.99023L21.1426 4.99023C21.5527 4.99023 21.8945 4.66797 21.8945 4.24805C21.8945 3.83789 21.5527 3.51562 21.1426 3.51562L11.3379 3.51562C10.9277 3.51562 10.5957 3.83789 10.5957 4.24805C10.5957 4.66797 10.9277 4.99023 11.3379 4.99023Z" fill="#000000" fill-opacity="0.85"/>
  <path d="M4.20898 8.44727C6.50391 8.44727 8.41797 6.54297 8.41797 4.24805C8.41797 1.94336 6.50391 0.0292969 4.20898 0.0292969C1.9043 0.0292969 0 1.94336 0 4.24805C0 6.54297 1.91406 8.44727 4.20898 8.44727ZM3.71094 6.50391C3.50586 6.50391 3.36914 6.39648 3.22266 6.23047L2.12891 4.91211C2.03125 4.80469 2.00195 4.6875 2.00195 4.53125C2.00195 4.24805 2.2168 4.02344 2.48047 4.02344C2.66602 4.02344 2.80273 4.10156 2.92969 4.26758L3.69141 5.23438L5.42969 2.44141C5.54688 2.26562 5.69336 2.16797 5.86914 2.16797C6.14258 2.16797 6.37695 2.38281 6.37695 2.62695C6.37695 2.76367 6.33789 2.88086 6.25 3.02734L4.20898 6.23047C4.10156 6.40625 3.92578 6.50391 3.71094 6.50391Z" fill="#000000" fill-opacity="0.85"/>
 </g>
</svg>
