<?xml version="1.0" encoding="UTF-8"?>
<!--Generator: Apple Native CoreSVG 232.5-->
<!DOCTYPE svg
PUBLIC "-//W3C//DTD SVG 1.1//EN"
       "http://www.w3.org/Graphics/SVG/1.1/DTD/svg11.dtd">
<svg version="1.1" xmlns="http://www.w3.org/2000/svg" xmlns:xlink="http://www.w3.org/1999/xlink" width="14.9805" height="22.4121">
 <g>
  <rect height="22.4121" opacity="0" width="14.9805" x="0" y="0"/>
  <path d="M6.76758 3.05664L7.85156 3.05664L7.85156 0.537109C7.85156 0.234375 7.60742 0 7.30469 0C7.00195 0 6.76758 0.244141 6.76758 0.546875ZM7.30469 8.03711C8.97461 8.03711 10.3027 6.70898 10.3027 5.04883C10.3027 3.37891 8.97461 2.05078 7.30469 2.05078C5.64453 2.05078 4.31641 3.37891 4.31641 5.04883C4.31641 6.70898 5.64453 8.03711 7.30469 8.03711ZM7.30469 6.5625C6.42578 6.5625 5.79102 5.91797 5.79102 5.04883C5.79102 4.16992 6.42578 3.52539 7.30469 3.52539C8.18359 3.52539 8.82812 4.16992 8.82812 5.04883C8.82812 5.91797 8.18359 6.5625 7.30469 6.5625ZM6.9043 7.25586L5.37109 6.88477L1.60156 19.5508C1.47461 19.9609 1.73828 20.4004 2.1582 20.5078C2.57812 20.625 2.99805 20.3809 3.125 19.9512ZM2.02148 18.9941L1.29883 21.6992C1.23047 21.9727 1.37695 22.2559 1.66016 22.3242C1.94336 22.4023 2.2168 22.2461 2.29492 21.9629L3.01758 19.2676ZM7.71484 7.25586L11.4941 19.9512C11.6211 20.3809 12.041 20.625 12.4609 20.5078C12.8809 20.4004 13.1348 19.9609 13.0176 19.5508L9.24805 6.88477ZM12.5977 18.9941L11.5918 19.2676L12.3242 21.9629C12.4023 22.2461 12.6758 22.4023 12.959 22.3242C13.2324 22.2559 13.3887 21.9727 13.3105 21.6992ZM0.644531 12.6758C0.283203 12.6758 0 12.959 0 13.3105C0 13.6621 0.283203 13.9551 0.644531 13.9551L13.9746 13.9551C14.3262 13.9551 14.6191 13.6621 14.6191 13.3105C14.6191 12.959 14.3262 12.6758 13.9746 12.6758ZM7.94922 11.6309C7.94922 11.2793 7.65625 10.9863 7.30469 10.9863C6.95312 10.9863 6.66992 11.2793 6.66992 11.6309L6.66992 14.9902C6.66992 15.3418 6.95312 15.6348 7.30469 15.6348C7.65625 15.6348 7.94922 15.3418 7.94922 14.9902Z" fill="#000000" fill-opacity="0.85"/>
 </g>
</svg>
