<?xml version="1.0" encoding="UTF-8"?>
<!--Generator: Apple Native CoreSVG 232.5-->
<!DOCTYPE svg
PUBLIC "-//W3C//DTD SVG 1.1//EN"
       "http://www.w3.org/Graphics/SVG/1.1/DTD/svg11.dtd">
<svg version="1.1" xmlns="http://www.w3.org/2000/svg" xmlns:xlink="http://www.w3.org/1999/xlink" width="23.0078" height="16.8848">
 <g>
  <rect height="16.8848" opacity="0" width="23.0078" x="0" y="0"/>
  <path d="M13.0762 1.47461C13.4863 1.47461 13.8086 1.15234 13.8086 0.732422C13.8086 0.322266 13.4863 0 13.0762 0L0.742188 0C0.332031 0 0 0.322266 0 0.732422C0 1.15234 0.332031 1.47461 0.742188 1.47461ZM13.0762 6.5918C13.4863 6.5918 13.8086 6.26953 13.8086 5.84961C13.8086 5.43945 13.4863 5.11719 13.0762 5.11719L0.742188 5.11719C0.332031 5.11719 0 5.43945 0 5.84961C0 6.26953 0.332031 6.5918 0.742188 6.5918ZM13.0762 11.709C13.4863 11.709 13.8086 11.377 13.8086 10.9668C13.8086 10.5566 13.4863 10.2344 13.0762 10.2344L0.742188 10.2344C0.332031 10.2344 0 10.5566 0 10.9668C0 11.377 0.332031 11.709 0.742188 11.709ZM8.08594 16.8164C8.49609 16.8164 8.81836 16.4941 8.81836 16.084C8.81836 15.6738 8.49609 15.3418 8.08594 15.3418L0.742188 15.3418C0.332031 15.3418 0 15.6738 0 16.084C0 16.4941 0.332031 16.8164 0.742188 16.8164Z" fill="#000000" fill-opacity="0.85"/>
  <path d="M21.123 11.4062C21.8359 11.8848 22.6465 11.6113 22.6465 10.7422L22.6465 6.11328C22.6465 5.21484 21.875 4.93164 21.123 5.43945L17.8906 7.63672C17.334 8.01758 17.3145 8.85742 17.8906 9.24805Z" fill="#000000" fill-opacity="0.85"/>
 </g>
</svg>
