<?xml version="1.0" encoding="UTF-8"?>
<!--Generator: Apple Native CoreSVG 232.5-->
<!DOCTYPE svg
PUBLIC "-//W3C//DTD SVG 1.1//EN"
       "http://www.w3.org/Graphics/SVG/1.1/DTD/svg11.dtd">
<svg version="1.1" xmlns="http://www.w3.org/2000/svg" xmlns:xlink="http://www.w3.org/1999/xlink" width="821.289" height="1047.36">
 <g>
  <rect height="1047.36" opacity="0" width="821.289" x="0" y="0"/>
  <path d="M151.367 1046.88L669.922 1046.88C770.996 1046.88 821.289 995.605 821.289 894.043L821.289 450.684C821.289 387.695 813.965 360.352 774.902 320.312L505.859 46.3867C468.75 8.30078 437.988 0 383.301 0L151.367 0C50.7812 0 0 51.7578 0 153.32L0 894.043C0 996.094 50.293 1046.88 151.367 1046.88ZM154.785 968.262C104.492 968.262 78.6133 941.406 78.6133 892.578L78.6133 154.785C78.6133 106.445 104.492 78.6133 155.273 78.6133L372.559 78.6133L372.559 362.305C372.559 423.828 403.32 454.102 464.355 454.102L742.676 454.102L742.676 892.578C742.676 941.406 716.797 968.262 666.016 968.262ZM473.145 380.371C453.613 380.371 446.289 372.559 446.289 353.027L446.289 93.75L727.539 380.371Z" fill="#000000" fill-opacity="0.85"/>
 </g>
</svg>
