<?xml version="1.0" encoding="UTF-8"?>
<!--Generator: Apple Native CoreSVG 232.5-->
<!DOCTYPE svg
PUBLIC "-//W3C//DTD SVG 1.1//EN"
       "http://www.w3.org/Graphics/SVG/1.1/DTD/svg11.dtd">
<svg version="1.1" xmlns="http://www.w3.org/2000/svg" xmlns:xlink="http://www.w3.org/1999/xlink" width="1108.89" height="899.902">
 <g>
  <rect height="899.902" opacity="0" width="1108.89" x="0" y="0"/>
  <path d="M153.32 893.555L970.215 893.555C1057.62 893.555 1108.89 842.773 1108.89 742.188L1108.89 240.723C1108.89 140.137 1057.13 89.3555 955.566 89.3555L486.816 89.3555C453.613 89.3555 433.594 81.543 409.18 60.5469L379.395 36.1328C347.168 8.78906 322.266 0 273.926 0L134.766 0C49.3164 0 0 48.8281 0 146.973L0 742.188C0 843.262 51.2695 893.555 153.32 893.555ZM154.297 814.941C105.469 814.941 78.6133 789.062 78.6133 738.281L78.6133 151.367C78.6133 103.027 104.004 78.125 150.879 78.125L253.906 78.125C286.133 78.125 305.664 86.4258 330.566 107.422L360.352 132.324C392.09 158.691 417.969 167.969 466.309 167.969L954.102 167.969C1002.44 167.969 1030.27 194.336 1030.27 245.117L1030.27 738.77C1030.27 789.062 1002.44 814.941 954.102 814.941ZM47.8516 346.68L1060.55 346.68L1060.55 272.949L47.8516 272.949Z" fill="#000000" fill-opacity="0.85"/>
 </g>
</svg>
