<?xml version="1.0" encoding="UTF-8"?>
<!--Generator: Apple Native CoreSVG 232.5-->
<!DOCTYPE svg
PUBLIC "-//W3C//DTD SVG 1.1//EN"
       "http://www.w3.org/Graphics/SVG/1.1/DTD/svg11.dtd">
<svg version="1.1" xmlns="http://www.w3.org/2000/svg" xmlns:xlink="http://www.w3.org/1999/xlink" width="23.3887" height="17.9785">
 <g>
  <rect height="17.9785" opacity="0" width="23.3887" x="0" y="0"/>
  <path d="M22.0215 14.4336L16.2207 8.98438C15.791 8.58398 15.2734 8.37891 14.7461 8.37891C14.209 8.37891 13.7305 8.56445 13.2812 8.96484L8.86719 12.9102L7.06055 11.2793C6.65039 10.9082 6.20117 10.7227 5.74219 10.7227C5.30273 10.7227 4.88281 10.8984 4.48242 11.2695L0.761719 14.6289C0.820312 16.3965 1.54297 17.2949 2.99805 17.2949L19.3652 17.2949C21.1328 17.2949 22.0215 16.3086 22.0215 14.4336ZM3.06641 17.9785L19.9609 17.9785C22.0117 17.9785 23.0273 16.9727 23.0273 14.9609L23.0273 3.02734C23.0273 1.01562 22.0117 0 19.9609 0L3.06641 0C1.02539 0 0 1.01562 0 3.02734L0 14.9609C0 16.9727 1.02539 17.9785 3.06641 17.9785ZM3.08594 16.4062C2.10938 16.4062 1.57227 15.8887 1.57227 14.873L1.57227 3.11523C1.57227 2.09961 2.10938 1.57227 3.08594 1.57227L19.9414 1.57227C20.9082 1.57227 21.4551 2.09961 21.4551 3.11523L21.4551 14.873C21.4551 15.8887 20.9082 16.4062 19.9414 16.4062Z" fill="#000000" fill-opacity="0.85"/>
  <path d="M7.27539 9.08203C8.53516 9.08203 9.57031 8.04688 9.57031 6.77734C9.57031 5.51758 8.53516 4.47266 7.27539 4.47266C6.00586 4.47266 4.9707 5.51758 4.9707 6.77734C4.9707 8.04688 6.00586 9.08203 7.27539 9.08203Z" fill="#000000" fill-opacity="0.85"/>
 </g>
</svg>
