<?xml version="1.0" encoding="UTF-8"?>
<!--Generator: Apple Native CoreSVG 232.5-->
<!DOCTYPE svg
PUBLIC "-//W3C//DTD SVG 1.1//EN"
       "http://www.w3.org/Graphics/SVG/1.1/DTD/svg11.dtd">
<svg version="1.1" xmlns="http://www.w3.org/2000/svg" xmlns:xlink="http://www.w3.org/1999/xlink" width="20.9668" height="18.877">
 <g>
  <rect height="18.877" opacity="0" width="20.9668" x="0" y="0"/>
  <path d="M6.66016 17.9297C7.1875 17.9297 7.5293 17.5781 7.5293 17.0703C7.5293 16.8164 7.44141 16.6309 7.29492 16.4746L4.47266 13.7305L2.06055 11.6602L1.88477 12.1094L4.91211 12.2461L17.3828 12.2461C19.6582 12.2461 20.6055 11.2012 20.6055 8.99414L20.6055 3.22266C20.6055 0.947266 19.6582 0 17.3828 0L11.9141 0C11.377 0 11.0254 0.390625 11.0254 0.869141C11.0254 1.34766 11.377 1.73828 11.9141 1.73828L17.3828 1.73828C18.418 1.73828 18.8574 2.1875 18.8574 3.22266L18.8574 8.99414C18.8574 10.0586 18.418 10.5078 17.3828 10.5078L4.91211 10.5078L1.88477 10.6348L2.06055 11.084L4.47266 9.02344L7.29492 6.2793C7.44141 6.12305 7.5293 5.92773 7.5293 5.67383C7.5293 5.17578 7.1875 4.81445 6.66016 4.81445C6.45508 4.81445 6.20117 4.92188 6.03516 5.08789L0.292969 10.7227C0.0976562 10.9082 0 11.1328 0 11.377C0 11.6113 0.0976562 11.8457 0.292969 12.0312L6.03516 17.666C6.20117 17.832 6.45508 17.9297 6.66016 17.9297Z" fill="#000000" fill-opacity="0.85"/>
 </g>
</svg>
