<svg t="1701762557422" class="icon" viewBox="0 0 1024 1024" version="1.1" xmlns="http://www.w3.org/2000/svg" p-id="2329"
    width="200" height="200">
    <path
        d="M938.666667 426.666667C938.666667 473.6 900.266667 512 853.333333 512L170.666667 512C123.733333 512 85.333333 473.6 85.333333 426.666667L85.333333 128 170.666667 128 170.666667 213.333333 341.333333 213.333333 341.333333 128 426.666667 128 426.666667 213.333333 597.333333 213.333333 597.333333 128 682.666667 128 682.666667 213.333333 853.333333 213.333333 853.333333 128 938.666667 128 938.666667 426.666667M170.666667 426.666667 341.333333 426.666667 341.333333 298.666667 170.666667 298.666667 170.666667 426.666667M426.666667 426.666667 597.333333 426.666667 597.333333 298.666667 426.666667 298.666667 426.666667 426.666667M853.333333 426.666667 853.333333 298.666667 682.666667 298.666667 682.666667 426.666667 853.333333 426.666667M469.333333 597.333333 554.666667 597.333333 554.666667 725.333333 682.666667 725.333333 682.666667 810.666667 554.666667 810.666667 554.666667 938.666667 469.333333 938.666667 469.333333 810.666667 341.333333 810.666667 341.333333 725.333333 469.333333 725.333333 469.333333 597.333333Z"
        p-id="2330"></path>
</svg>